<svg xmlns="http://www.w3.org/2000/svg" version="1.1" xmlns:xlink="http://www.w3.org/1999/xlink" xmlns:svgjs="http://svgjs.dev/svgjs" width="1000" height="750" viewBox="0 0 1000 750"><rect width="1000" height="750" fill="#ffffff"></rect><g transform="matrix(0.584,0,0,0.584,208.2364372469636,83.23672439346228)"><svg viewBox="0 0 247 247" data-background-color="#ffffff" preserveAspectRatio="xMidYMid meet" height="1000" width="1000" xmlns="http://www.w3.org/2000/svg" xmlns:xlink="http://www.w3.org/1999/xlink"><defs></defs><g id="tight-bounds" transform="matrix(1,0,0,1,-0.09999999999999432,-0.10012144723489769)"><svg viewBox="0 0 247.2 247.2" height="247.2" width="247.2"><g><svg viewBox="0 0 247.2 247.2" height="247.2" width="247.2"><g><svg viewBox="0 0 247.2 247.2" height="247.2" width="247.2"><g><svg viewBox="0 0 247.2 247.2" height="247.2" width="247.2"><g><svg viewBox="0 0 247.2 247.2" height="247.2" width="247.2"><g><svg viewBox="0 0 247.2 247.2" height="247.2" width="247.2"><g transform="matrix(1,0,0,1,89.2221230723373,65.33440123022848)"><svg viewBox="0 0 68.7557538553254 116.53119753954303" height="116.53119753954303" width="68.7557538553254"><g><svg xmlns="http://www.w3.org/2000/svg" data-name="Layer 1" viewBox="31.223121643066406 18.096773147583008 37.651092529296875 63.813232421875" x="0" y="0" height="116.53119753954303" width="68.7557538553254" class="icon-o-0" data-fill-palette-color="accent" id="o-0"><path class="cls-1" d="M52.43 30h0.06a1.3 1.3 0 0 0 1.3-1.24l0.4-9.31a1.3 1.3 0 0 0-1.24-1.35 1.26 1.26 0 0 0-1.35 1.24l-0.4 9.31A1.3 1.3 0 0 0 52.43 30Z" fill="#2257bf" data-fill-palette-color="accent"></path><path class="cls-1" d="M68.38 34.45a3.89 3.89 0 0 0-2.89-1.18 4.43 4.43 0 0 0-2.87 2c-1.56 1.9-3.18 3.86-10-0.7-3-2.46-5.65-0.42-8 1.39C41.78 38.2 38.51 40.72 32.84 39a1.3 1.3 0 0 0-0.74 2.49 15 15 0 0 0 4.3 0.67c4.47 0 7.5-2.34 9.85-4.16 2.07-1.6 3-2.21 4-1.91A22.62 22.62 0 0 0 49 50.63c-0.58 5.33-3.22 19.07-9 22.54a1.3 1.3 0 0 0 1.34 2.23c5.55-3.34 8.26-13.19 9.45-19.42 0.38 0.86 0.81 1.74 1.31 2.63 6.93 12.58 7.62 22 7.63 22.07A1.3 1.3 0 0 0 61 81.91h0.09a1.3 1.3 0 0 0 1.21-1.38c0-0.4-0.71-10-7.95-23.16a28.28 28.28 0 0 1-2.77-7 1.28 1.28 0 0 0-0.07-0.28 20.11 20.11 0 0 1 0.9-12.56C55.31 39.28 57.51 40 59.24 40c2.56 0 4.11-1.47 5.39-3 0.35-0.42 0.87-1.05 1.09-1.07 0 0 0.29 0 1 0.57a1.3 1.3 0 1 0 1.69-2Z" fill="#2257bf" data-fill-palette-color="accent"></path></svg></g></svg></g><path d="M15.851 92.193v0c1.117 0.378 1.947-0.237 2.49-1.844 0.546-1.614 0.318-2.589-0.682-2.928v0c-0.536-0.181-1.065-0.051-1.588 0.39-0.528 0.433-1.036 1.002-1.527 1.707-0.492 0.711-1.019 1.407-1.58 2.087-0.57 0.685-1.267 1.193-2.091 1.526-0.825 0.333-1.711 0.338-2.66 0.017v0c-4.06-1.373-5.207-4.67-3.441-9.891v0c0.646-1.91 1.492-3.232 2.539-3.964 1.055-0.737 2.221-0.889 3.499-0.457v0c0.465 0.157 0.893 0.37 1.283 0.639 0.385 0.267 0.645 0.495 0.782 0.686v0l0.225 0.291-1.45 4.289c-0.254-0.482-0.665-0.818-1.234-1.01v0c-1.046-0.354-1.801 0.157-2.265 1.531v0c-0.585 1.73-0.329 2.78 0.768 3.152v0c0.549 0.186 1.077 0.059 1.585-0.381 0.508-0.439 0.989-1.021 1.443-1.746 0.451-0.718 0.95-1.426 1.496-2.126 0.54-0.702 1.222-1.22 2.046-1.552 0.825-0.333 1.747-0.326 2.766 0.018v0c2.052 0.694 3.368 1.822 3.948 3.385 0.577 1.569 0.433 3.631-0.431 6.187-0.862 2.549-1.904 4.142-3.127 4.78v0c-0.911 0.461-1.967 0.489-3.168 0.083v0c-0.452-0.153-0.929-0.368-1.432-0.646v0l-0.364-0.199 1.477-4.366 0.274 0.146c0.15 0.087 0.29 0.152 0.419 0.196zM9.624 72.183l2.297-4.231 9.076 1.81-4.962-9.391 2.306-4.249 14.654 11.651-2.209 4.069-8.257-6.574 3.561 6.421-1.599 2.946-6.272-1.427 8.253 6.584-2.194 4.042zM42.839 54.502l-2.99 3.838-3.074-2.589-2.625 3.37 2.396 3.46-3.002 3.854-10.501-16.521 5.187-6.66zM29.189 49.324l-0.986 1.266 3.885 5.591 2.059-2.645zM33.463 37.793l5.368-5.122c1.41-1.345 2.707-1.989 3.891-1.933v0c0.89 0.045 1.677 0.425 2.359 1.14v0c0.235 0.246 0.457 0.529 0.667 0.847v0l1.124 1.696c0.619 0.945 0.981 1.837 1.087 2.678 0.106 0.841 0.038 1.579-0.204 2.215v0l6.843 3.796-3.742 3.57-6.307-3.502-1.154 1.101 4.001 5.703-3.557 3.393zM40.422 36.677v0l-1.39 1.326 2.595 3.682 1.301-1.241c0.651-0.621 0.968-1.225 0.954-1.814-0.015-0.588-0.27-1.141-0.764-1.659v0c-0.955-1.001-1.854-1.099-2.696-0.294zM60.208 16.723l1.69 3.691-5.181 3.594 6.148 13.311-3.804 2.638-6.148-13.31-5.198 3.606-1.69-3.692zM75.917 9.224v0c3.794-1.63 6.324-0.97 7.59 1.978v0c0.202 0.47 0.374 1 0.516 1.591v0l1.357 5.825c0.467 1.95 0.42 3.627-0.141 5.032-0.557 1.396-1.671 2.575-3.342 3.538v0c0.417 0.488 1.03 0.759 1.84 0.811 0.815 0.05 1.755-0.153 2.819-0.61v0l1.323 3.392c-1.196 0.514-2.302 0.829-3.319 0.947-1.017 0.118-1.855 0.092-2.514-0.077-0.659-0.169-1.256-0.447-1.792-0.832v0c-0.814-0.6-1.424-1.331-1.832-2.194v0c-2.755 0.716-4.657-0.147-5.706-2.588v0c-0.223-0.52-0.409-1.1-0.558-1.74v0l-1.356-5.824c-0.997-4.273 0.708-7.356 5.115-9.249zM79.387 24.062v0c0.783-0.336 1.324-0.802 1.624-1.399 0.309-0.592 0.332-1.455 0.067-2.587v0l-1.195-5.115c-0.085-0.319-0.178-0.595-0.277-0.826v0c-0.527-1.227-1.448-1.558-2.763-0.993v0c-1.602 0.725-2.182 2.016-1.74 3.872v0l1.224 5.103c0.099 0.403 0.235 0.807 0.41 1.214v0c0.452 1.052 1.335 1.295 2.65 0.731zM100.882 19.539c-1.03 1.439-2.743 2.466-5.139 3.081-2.396 0.615-4.201 0.488-5.416-0.382v0c-0.855-0.589-1.454-1.554-1.798-2.894v0c-0.152-0.594-0.254-1.264-0.305-2.01v0l-0.926-11.95 4.464-1.146 0.901 11.85c0.041 0.433 0.118 0.87 0.231 1.313v0c0.298 1.161 1.144 1.563 2.536 1.206v0c0.825-0.212 1.43-0.596 1.815-1.152 0.385-0.556 0.527-1.44 0.427-2.653v0l-0.901-11.85 4.464-1.146 0.926 11.949c0.179 2.423-0.248 4.351-1.279 5.784zM118.226 14.62l-0.32 4.047-12.784 1.259 1.426-18.666 12.785-1.26-0.32 4.047-8.208 0.809-0.241 3.494 6.774-0.667-0.321 4.047-6.773 0.667-0.215 3.031zM125.059 13.393v0c-0.046 1.178 0.778 1.8 2.473 1.866 1.702 0.067 2.574-0.428 2.615-1.483v0c0.022-0.565-0.253-1.036-0.824-1.413-0.565-0.383-1.254-0.71-2.069-0.981-0.821-0.271-1.638-0.579-2.449-0.925-0.818-0.352-1.503-0.877-2.055-1.573-0.552-0.697-0.809-1.545-0.77-2.546v0c0.168-4.282 3.005-6.316 8.513-6.1v0c2.015 0.079 3.522 0.516 4.521 1.312 1.005 0.803 1.481 1.879 1.428 3.226v0c-0.019 0.49-0.102 0.961-0.25 1.412-0.147 0.444-0.292 0.759-0.435 0.945v0l-0.217 0.298-4.524-0.177c0.39-0.38 0.597-0.87 0.62-1.469v0c0.043-1.103-0.66-1.683-2.11-1.74v0c-1.825-0.071-2.76 0.472-2.805 1.629v0c-0.023 0.579 0.249 1.05 0.814 1.413 0.565 0.363 1.259 0.66 2.082 0.889 0.816 0.23 1.637 0.507 2.463 0.833 0.826 0.319 1.515 0.826 2.068 1.523 0.552 0.697 0.807 1.583 0.765 2.659v0c-0.085 2.165-0.794 3.746-2.129 4.744-1.341 0.998-3.36 1.444-6.056 1.338-2.689-0.105-4.512-0.654-5.468-1.646v0c-0.7-0.743-1.026-1.748-0.977-3.015v0c0.019-0.477 0.09-0.995 0.214-1.556v0l0.088-0.406 4.606 0.181-0.063 0.304c-0.041 0.169-0.064 0.321-0.069 0.458zM157.735 4.702l-1.475 3.782-6.187-1.22-5.28 13.678-4.542-0.896 5.28-13.677-6.207-1.224 1.475-3.782zM161.001 5.84l4.394 1.393-8.651 16.598-4.413-1.399zM176.14 11.716v0c3.768 1.656 4.976 4.021 3.624 7.096v0c-0.228 0.518-0.528 1.048-0.9 1.592v0l-2.874 4.33c-1.334 2.003-2.856 3.255-4.564 3.754-1.708 0.5-3.697 0.251-5.968-0.747-2.264-0.995-3.612-2.212-4.043-3.652v0c-0.29-0.983-0.157-2.108 0.4-3.374v0c0.247-0.561 0.58-1.151 1.001-1.771v0l2.874-4.329c2.575-3.862 6.059-4.828 10.45-2.899zM167.69 24.391v0c0.78 0.343 1.493 0.414 2.138 0.214 0.652-0.197 1.313-0.803 1.983-1.819v0l2.773-4.151c0.181-0.293 0.326-0.564 0.436-0.814v0c0.556-1.266 0.195-2.18-1.084-2.742v0c-1.623-0.676-2.985-0.184-4.086 1.475v0l-2.773 4.151c-0.235 0.366-0.444 0.757-0.628 1.175v0c-0.482 1.098-0.069 1.935 1.241 2.511zM194.921 22.711l3.878 2.491-12.683 13.765-3.895-2.502 2.736-10.233-6.915 7.548-3.895-2.503 12.701-13.754 4.006 2.574-2.428 9.64zM210.158 35.196l3.44 3.067-14.68 11.612-3.455-3.081 4.302-9.678-8.01 6.373-3.455-3.081 14.695-11.599 3.555 3.17-3.906 9.141zM209.85 62.408l-3.118-3.734 3.181-2.457-2.738-3.279-3.889 1.61-3.131-3.75 18.37-6.765 5.411 6.479zM217.8 50.164l-1.029-1.232-6.286 2.613 2.149 2.573zM228.048 56.355l2.539 3.846-17.166 7.462-2.551-3.864zM232.89 64.568l3.403 6.594c0.894 1.732 1.146 3.158 0.758 4.277v0c-0.294 0.842-0.88 1.489-1.758 1.943v0c-0.303 0.156-0.636 0.29-1 0.401v0l-1.944 0.601c-1.081 0.328-2.039 0.424-2.876 0.288-0.837-0.136-1.526-0.409-2.068-0.82v0l-5.57 5.497-2.372-4.595 5.138-5.066-0.732-1.417-6.599 2.232-2.254-4.368zM232.001 71.559v0l-0.881-1.707-4.264 1.453 0.824 1.598c0.412 0.799 0.903 1.274 1.472 1.426 0.569 0.151 1.171 0.063 1.807-0.265v0c1.229-0.634 1.577-1.469 1.042-2.505zM230.352 95.811l-4.014 0.606-4.129-12.165 18.504-2.847 4.128 12.165-4.014 0.607-2.65-7.81-3.459 0.558 2.188 6.446-4.014 0.606-2.188-6.445-2.999 0.478zM13.969 161.502v0c-1.117 0.378-1.403 1.37-0.86 2.977 0.546 1.614 1.319 2.251 2.319 1.913v0c0.536-0.181 0.877-0.606 1.026-1.275 0.157-0.664 0.216-1.425 0.177-2.282-0.04-0.864-0.044-1.736-0.011-2.618 0.037-0.89 0.282-1.717 0.735-2.482 0.453-0.765 1.155-1.308 2.104-1.628v0c4.06-1.373 6.973 0.551 8.738 5.772v0c0.646 1.91 0.776 3.474 0.389 4.691-0.391 1.226-1.226 2.054-2.503 2.487v0c-0.465 0.157-0.934 0.248-1.408 0.271-0.467 0.021-0.813-0.002-1.038-0.07v0l-0.356-0.095-1.45-4.289c0.494 0.228 1.026 0.247 1.593 0.054v0c1.046-0.354 1.336-1.218 0.871-2.592v0c-0.585-1.73-1.426-2.409-2.523-2.038v0c-0.549 0.186-0.891 0.607-1.029 1.265-0.137 0.658-0.166 1.412-0.087 2.262 0.077 0.844 0.111 1.71 0.102 2.598-0.003 0.886-0.231 1.711-0.684 2.476-0.453 0.765-1.19 1.32-2.21 1.664v0c-2.052 0.694-3.783 0.596-5.192-0.294-1.411-0.897-2.549-2.623-3.413-5.178-0.862-2.549-1.001-4.448-0.416-5.696v0c0.444-0.92 1.266-1.583 2.467-1.989v0c0.452-0.153 0.962-0.271 1.531-0.356v0l0.41-0.063 1.477 4.366-0.307 0.05c-0.172 0.022-0.323 0.055-0.452 0.099zM31.052 169.246l2.297 4.23-6.464 6.624 10.578 0.957 2.306 4.249-17.754 5.938-2.209-4.069 10.013-3.341-7.325-0.513-1.599-2.946 4.614-4.481-10.017 3.332-2.194-4.042zM32.982 206.233l-2.989-3.838 3.263-2.347-2.625-3.37-3.941 1.476-3.002-3.854 18.59-6.137 5.187 6.66zM41.344 194.266l-0.986-1.265-6.371 2.397 2.06 2.645zM50.294 197.626l5.368 5.122c1.41 1.345 2.114 2.611 2.113 3.796v0c-0.003 0.892-0.346 1.695-1.028 2.41v0c-0.235 0.246-0.507 0.482-0.814 0.706v0l-1.642 1.202c-0.915 0.662-1.789 1.066-2.625 1.211-0.835 0.145-1.576 0.112-2.221-0.1v0l-3.471 7.014-3.742-3.57 3.202-6.465-1.153-1.101-5.509 4.264-3.557-3.393zM51.735 204.525v0l-1.39-1.327-3.557 2.765 1.302 1.242c0.651 0.621 1.27 0.91 1.856 0.867 0.587-0.043 1.127-0.323 1.621-0.84v0c0.955-1.001 1.011-1.903 0.168-2.707zM74.104 216.302l-2.865 2.876-5.182-3.594-10.313 10.421-3.804-2.639 10.313-10.421-5.198-3.606 2.865-2.875zM85.676 221.114v0c3.794 1.63 5.057 3.919 3.791 6.867v0c-0.202 0.47-0.468 0.96-0.799 1.47v0l-3.29 4.993c-1.093 1.681-2.342 2.802-3.747 3.363-1.396 0.557-3.018 0.561-4.866 0.012v0c-0.067 0.639 0.159 1.27 0.678 1.893 0.525 0.626 1.319 1.167 2.383 1.624v0l-1.549 3.295c-1.196-0.514-2.186-1.099-2.972-1.755-0.786-0.656-1.344-1.282-1.675-1.876-0.331-0.594-0.541-1.218-0.63-1.873v0c-0.125-1.003-0.015-1.949 0.33-2.839v0c-2.416-1.505-3.1-3.478-2.051-5.92v0c0.223-0.52 0.516-1.054 0.877-1.603v0l3.291-4.993c2.412-3.665 5.822-4.551 10.229-2.658zM77.304 233.846v0c0.783 0.336 1.493 0.408 2.132 0.215 0.642-0.184 1.284-0.761 1.923-1.732v0l2.886-4.389c0.173-0.282 0.309-0.538 0.409-0.77v0c0.527-1.227 0.133-2.123-1.182-2.687v0c-1.629-0.662-2.964-0.194-4.007 1.404v0l-2.857 4.401c-0.224 0.349-0.423 0.727-0.599 1.133v0c-0.452 1.052-0.02 1.86 1.295 2.425zM98.446 243.007c-1.596 0.765-3.592 0.84-5.988 0.225-2.396-0.615-3.916-1.596-4.562-2.944v0c-0.465-0.928-0.526-2.062-0.181-3.402v0c0.152-0.594 0.386-1.23 0.701-1.909v0l4.945-10.918 4.464 1.147-4.919 10.818c-0.173 0.399-0.316 0.819-0.43 1.261v0c-0.298 1.161 0.249 1.921 1.642 2.279v0c0.825 0.212 1.54 0.167 2.145-0.135 0.605-0.302 1.156-1.008 1.652-2.119v0l4.919-10.818 4.465 1.146-4.945 10.917c-1.01 2.21-2.313 3.694-3.908 4.452zM117.785 242.918l-1.104 3.906-12.784-1.259 5.042-18.03 12.784 1.26-1.103 3.907-8.208-0.809-0.919 3.381 6.774 0.667-1.104 3.907-6.773-0.668-0.803 2.93zM125.136 241.651v0c0.046 1.178 0.917 1.734 2.612 1.667 1.702-0.067 2.532-0.628 2.491-1.683v0c-0.022-0.565-0.333-1.013-0.932-1.344-0.593-0.338-1.306-0.61-2.139-0.816-0.84-0.206-1.678-0.449-2.514-0.73-0.843-0.287-1.567-0.757-2.172-1.408-0.605-0.651-0.927-1.477-0.966-2.479v0c-0.168-4.282 2.502-6.531 8.01-6.746v0c2.015-0.079 3.552 0.239 4.609 0.954 1.065 0.722 1.623 1.757 1.676 3.105v0c0.019 0.49-0.027 0.966-0.138 1.427-0.112 0.454-0.232 0.78-0.361 0.976v0l-0.192 0.314-4.524 0.177c0.359-0.41 0.527-0.914 0.503-1.513v0c-0.043-1.103-0.79-1.626-2.24-1.569v0c-1.825 0.071-2.714 0.686-2.669 1.844v0c0.023 0.579 0.33 1.027 0.922 1.344 0.592 0.318 1.307 0.559 2.146 0.724 0.832 0.165 1.672 0.378 2.52 0.638 0.849 0.253 1.575 0.705 2.181 1.357 0.605 0.651 0.929 1.515 0.971 2.59v0c0.085 2.165-0.499 3.797-1.752 4.896-1.259 1.099-3.237 1.702-5.933 1.808-2.689 0.105-4.549-0.299-5.581-1.214v0c-0.756-0.686-1.159-1.663-1.209-2.929v0c-0.019-0.477 0.012-0.999 0.092-1.568v0l0.056-0.411 4.605-0.181-0.039 0.309c-0.027 0.172-0.038 0.325-0.033 0.461zM153.018 224.436l0.071 4.059-6.186 1.22 0.307 14.658-4.542 0.896-0.307-14.658-6.207 1.223-0.071-4.059zM153.632 223.978l4.394-1.393 2.494 18.551-4.413 1.399zM166.191 218.703v0c3.768-1.656 6.327-0.946 7.679 2.13v0c0.228 0.518 0.415 1.098 0.563 1.739v0l1.246 5.045c0.573 2.338 0.467 4.305-0.32 5.902-0.787 1.596-2.316 2.893-4.587 3.89-2.264 0.995-4.073 1.165-5.425 0.509v0c-0.92-0.451-1.659-1.31-2.215-2.577v0c-0.247-0.561-0.456-1.206-0.627-1.934v0l-1.246-5.046c-1.103-4.509 0.541-7.728 4.932-9.658zM169.813 233.499v0c0.78-0.343 1.314-0.819 1.604-1.43 0.296-0.614 0.296-1.511 0.001-2.691v0l-1.182-4.85c-0.093-0.331-0.195-0.621-0.305-0.871v0c-0.556-1.266-1.474-1.618-2.753-1.056v0c-1.596 0.738-2.155 2.074-1.677 4.008v0l1.183 4.85c0.11 0.42 0.257 0.84 0.441 1.257v0c0.482 1.098 1.379 1.359 2.688 0.784zM181.742 209.836l3.878-2.491 7.249 17.256-3.895 2.503-8.17-6.74 3.992 9.425-3.895 2.503-7.233-17.268 4.007-2.574 7.759 6.214zM193.933 199.665l3.44-3.068 9.859 15.911-3.455 3.081-9.124-5.38 5.417 8.685-3.456 3.081-9.844-15.924 3.555-3.169 8.635 4.925zM219.439 198.658l-3.118 3.734-2.985-2.692-2.738 3.279 2.277 3.539-3.131 3.75-9.933-16.87 5.411-6.479zM205.973 193.019l-1.028 1.231 3.692 5.72 2.149-2.573zM207.7 183.273l2.539-3.847 13.608 12.852-2.55 3.864zM211.224 177.31l3.403-6.594c0.894-1.732 1.909-2.764 3.047-3.097v0c0.856-0.248 1.724-0.146 2.601 0.308v0c0.303 0.156 0.605 0.351 0.907 0.583v0l1.616 1.236c0.893 0.691 1.527 1.417 1.901 2.177 0.374 0.76 0.551 1.48 0.53 2.16v0l7.708 1.355-2.371 4.596-7.106-1.252-0.731 1.417 5.643 4.085-2.254 4.369zM217.437 173.984v0l-0.881 1.707 3.655 2.634 0.825-1.599c0.412-0.799 0.515-1.474 0.309-2.025-0.206-0.551-0.627-0.991-1.263-1.319v0c-1.229-0.634-2.111-0.434-2.645 0.602zM234.614 158.694l3.554 1.962-4.128 12.165-16.415-9.003 4.129-12.165 3.554 1.962-2.651 7.81 3.084 1.662 2.188-6.446 3.554 1.962-2.187 6.445 2.671 1.446zM2.359 126.529c0-3.927 3.183-7.11 7.109-7.109 3.927 0 7.11 3.183 7.11 7.109 0 3.927-3.183 7.11-7.11 7.11-3.927 0-7.11-3.183-7.109-7.11zM229.738 126.529c0-3.927 3.183-7.11 7.11-7.109 3.927 0 7.11 3.183 7.109 7.109 0 3.927-3.183 7.11-7.109 7.11-3.927 0-7.11-3.183-7.11-7.11z" fill="#2257bf" data-fill-palette-color="primary"></path></svg></g></svg></g></svg></g><g></g></svg></g></svg></g></svg><rect width="247.2" height="247.2" fill="none" stroke="none" visibility="hidden"></rect></g></svg></g></svg>